<?xml version="1.0" standalone="no"?>
<!DOCTYPE svg PUBLIC "-//W3C//DTD SVG 20010904//EN" "http://www.w3.org/TR/2001/REC-SVG-20010904/DTD/svg10.dtd">
<svg version="1.0" xmlns="http://www.w3.org/2000/svg" width="512.000000pt" height="512.000000pt"
    viewBox="0 0 512.000000 512.000000" preserveAspectRatio="xMidYMid meet">

    <g transform="translate(0.000000,512.000000) scale(0.100000,-0.100000)" fill="#e64a19" stroke="none">
        <path d="M4380 5100 c-19 -19 -20 -33 -20 -434 l0 -414 -32 -13 c-46 -19 -96
-66 -121 -113 -21 -38 -22 -57 -25 -273 l-3 -233 -206 0 -205 0 41 46 c86 97
126 225 119 374 -4 76 -10 108 -33 158 -58 130 -180 202 -340 202 -160 0 -282
-72 -340 -202 -23 -50 -29 -82 -33 -158 -7 -153 34 -279 124 -379 l46 -51
-109 0 c-236 0 -305 -42 -544 -326 -65 -77 -131 -146 -146 -153 -36 -17 -459
-167 -683 -242 l-174 -59 -289 0 -289 0 30 38 c78 99 117 228 109 362 -10 157
-64 250 -181 310 -67 34 -72 35 -185 35 -142 0 -194 -19 -269 -99 -70 -74 -95
-144 -96 -271 -1 -125 25 -216 89 -309 l44 -65 -67 -6 c-220 -19 -356 -91
-413 -218 l-24 -52 0 -486 0 -486 35 -68 c41 -81 102 -136 186 -170 l59 -24 5
-322 5 -322 26 -19 c28 -21 57 -18 84 8 13 14 15 124 15 884 l0 869 -22 15
c-31 22 -64 20 -88 -4 -19 -19 -20 -33 -20 -490 0 -258 -2 -470 -5 -470 -15 0
-63 31 -87 57 -58 60 -58 63 -58 545 0 424 1 443 20 484 24 49 73 85 150 110
49 16 117 19 670 24 l615 5 192 68 c106 37 204 67 218 67 40 0 85 -50 85 -94
0 -62 -26 -79 -245 -158 l-200 -71 -160 -7 c-129 -6 -171 -12 -218 -30 -69
-26 -143 -94 -177 -165 -24 -49 -25 -57 -28 -305 -3 -248 -3 -256 17 -275 12
-10 144 -89 294 -176 l272 -157 5 -233 c3 -129 7 -235 8 -236 1 -1 9 -9 18
-17 22 -22 70 -20 94 4 19 19 20 33 20 278 0 201 -3 262 -13 277 -8 10 -139
91 -293 180 l-279 162 0 216 0 215 31 39 c57 70 79 77 264 84 l165 6 200 72
c109 39 330 112 490 162 159 50 305 97 323 105 19 7 65 44 103 80 l69 67 0
-820 c0 -783 1 -822 18 -844 26 -31 78 -31 104 0 17 22 18 64 18 946 0 918 0
922 -21 949 -14 17 -30 26 -49 26 -24 0 -47 -20 -140 -122 -61 -68 -122 -131
-135 -141 -18 -13 -389 -137 -411 -137 -2 0 -4 17 -4 39 0 22 -12 62 -28 94
l-28 56 105 37 c139 48 211 80 240 107 13 12 76 83 139 157 134 156 191 213
247 243 39 22 48 22 610 27 529 5 572 6 597 23 53 36 58 64 58 316 0 249 4
272 51 297 45 23 87 18 120 -15 l29 -29 0 -356 0 -356 -29 -32 -29 -33 -198
-8 c-218 -10 -264 -21 -341 -77 -23 -17 -55 -52 -73 -77 -55 -85 -60 -118 -60
-429 0 -279 0 -283 23 -307 12 -14 149 -98 305 -187 l282 -162 0 -283 0 -284
26 -20 c33 -26 55 -26 85 -2 l24 19 3 309 c2 232 -1 314 -10 331 -8 15 -121
86 -303 191 l-290 167 -3 245 c-3 262 1 298 45 349 50 60 81 68 299 78 134 7
210 14 234 24 50 21 98 64 123 112 21 40 22 52 25 406 2 259 0 377 -9 408 -14
51 -75 123 -124 146 l-35 17 2 192 3 192 297 5 c282 5 298 6 312 25 23 30 20
48 -24 135 l-40 80 40 80 c46 92 48 109 17 138 -23 22 -28 22 -360 22 -324 0
-338 -1 -357 -20z m550 -125 c0 -2 -10 -25 -22 -50 l-22 -45 22 -45 c12 -25
22 -48 22 -50 0 -3 -99 -5 -220 -5 l-220 0 0 100 0 100 220 0 c121 0 220 -2
220 -5z m-1252 -741 c39 -19 59 -38 80 -72 25 -44 27 -55 27 -157 0 -98 -3
-116 -26 -165 -50 -107 -118 -160 -204 -160 -86 0 -154 53 -204 160 -20 45
-26 74 -29 155 -4 94 -2 103 25 155 23 44 39 59 82 82 74 39 174 40 249 2z
m-2672 -813 c84 -38 119 -118 112 -250 -10 -159 -84 -268 -201 -295 -77 -18
-174 51 -223 157 -25 55 -29 73 -29 163 0 94 2 103 30 149 43 69 96 95 194 95
52 0 89 -6 117 -19z" />
        <path d="M3430 2290 c-20 -20 -20 -33 -20 -554 l0 -535 26 -20 c33 -26 45 -26
78 0 l26 20 0 460 c0 252 2 459 4 459 2 0 107 -58 232 -128 l229 -129 5 -197
c5 -193 6 -198 29 -217 30 -24 52 -24 85 2 l26 20 0 228 c0 223 0 228 -22 248
-37 33 -634 363 -657 363 -12 0 -30 -9 -41 -20z" />
        <path d="M864 1642 c-32 -21 -34 -53 -34 -494 0 -479 1 -483 54 -501 22 -7 33
-5 55 10 l26 20 3 392 c1 215 6 391 10 391 4 0 106 -56 227 -124 l220 -124 3
-143 c3 -160 10 -179 67 -179 60 0 65 15 65 218 l0 182 -37 24 c-21 13 -163
94 -317 180 -262 147 -312 168 -342 148z" />
        <path d="M3764 1156 c-16 -12 -20 -31 -24 -138 l-5 -123 -608 -5 c-588 -5
-609 -6 -623 -24 -10 -14 -14 -48 -14 -113 l0 -93 -598 0 c-525 0 -600 -2
-620 -16 -21 -14 -22 -23 -22 -130 l0 -114 -603 0 -604 0 -21 -23 c-21 -22
-22 -33 -22 -178 0 -150 1 -156 23 -177 30 -29 62 -28 92 3 23 23 25 31 25
130 l0 105 555 0 555 0 0 -114 c0 -107 1 -116 22 -130 31 -22 64 -20 88 4 19
19 20 33 20 260 l0 240 555 0 555 0 0 -234 c0 -221 1 -235 21 -260 28 -35 70
-35 98 0 20 26 21 38 21 375 l0 349 555 0 555 0 0 -355 c0 -342 1 -356 20
-375 24 -24 57 -26 88 -4 l22 15 0 500 0 499 555 0 555 0 0 -490 0 -491 25
-24 c30 -31 65 -32 93 -2 l22 23 0 540 0 541 -23 21 -23 22 -645 0 c-541 0
-648 -2 -665 -14z" />
    </g>
</svg>